<svg xmlns="http://www.w3.org/2000/svg" viewBox="0 0 1390 888" width="1390" height="888">
	<defs>
		<clipPath clipPathUnits="userSpaceOnUse" id="cp1">
			<path d="M-48 5L1432 5L1432 935L-48 935Z" />
		</clipPath>
	</defs>
	<style>
		tspan { white-space:pre }
		.shp0 { fill: #115fb2 } 
		.shp1 { fill: #ebebeb } 
		.shp2 { fill: #ffffff } 
	</style>
	<g id="Page 1" clip-path="url(#cp1)">
		<path id="Path 1" class="shp0" d="M1352.85 886.4L34.33 886.4C16.78 886.4 2.56 872.17 2.56 854.63L2.56 36.77C2.56 19.22 16.78 5 34.33 5L1352.85 5C1370.39 5 1384.62 19.22 1384.62 36.77L1384.62 854.63C1384.62 872.17 1370.39 886.4 1352.85 886.4Z" />
		<path id="Path 2" class="shp1" d="M2.56 712.53L2.56 855.29C2.56 872.47 16.49 886.4 33.67 886.4L1353.5 886.4C1370.69 886.4 1384.62 872.47 1384.62 855.29L1384.62 305.87L2.56 712.53Z" />
		<path id="Path 8" class="shp2" d="M321.82 76.73L302.99 76.73C302.53 76.73 302.16 76.35 302.16 75.89L302.16 72.74C302.16 72.28 302.53 71.91 302.99 71.91L321.82 71.91C322.28 71.91 322.66 72.28 322.66 72.74L322.66 75.89C322.66 76.35 322.28 76.73 321.82 76.73ZM321.82 83.23L302.99 83.23C302.53 83.23 302.16 82.85 302.16 82.39L302.16 79.24C302.16 78.78 302.53 78.41 302.99 78.41L321.82 78.41C322.28 78.41 322.66 78.78 322.66 79.24L322.66 82.39C322.66 82.85 322.28 83.23 321.82 83.23ZM321.82 89.73L302.99 89.73C302.53 89.73 302.16 89.35 302.16 88.89L302.16 85.74C302.16 85.28 302.53 84.91 302.99 84.91L321.82 84.91C322.28 84.91 322.66 85.28 322.66 85.74L322.66 88.89C322.66 89.35 322.28 89.73 321.82 89.73ZM84.92 64.22L105.62 45.75C105.62 45.75 109.6 42.82 116.3 42.24C126.69 41.33 136.26 41.5 136.49 41.53C136.8 41.58 137.55 41.32 136.88 42.7C136.09 44.36 133.75 47.79 131.04 50.58C129.84 51.8 123.21 58.76 112.87 61.73C102.42 64.73 95.69 65.61 89.43 65.92C88.3 65.98 85.88 66.25 84.76 66.03C84.3 65.94 83.48 65.47 84.92 64.22ZM83.58 72.64C84.1 72.12 96.23 69.59 108.79 69.37C120.64 69.16 126.1 74.44 129.06 77.48C130.24 78.68 137.54 84.06 143.4 105.08C143.52 105.49 143.4 106.09 142.23 106.32C141.07 106.56 137.04 107.39 137.04 107.39C137.3 107.6 117.78 110.48 112.76 110.61C109.06 110.71 96.96 112.79 92.57 103.13C92.3 103.14 84.76 87 83.14 74.75C83.07 74.22 82.69 73.54 83.58 72.64ZM144.08 45.3L155.28 69.21C155.28 69.21 156.5 72.12 155.41 75.4C154.32 78.67 149.46 93.9 149.46 93.9C149.46 93.9 149.04 95.27 148.19 94.18C148.19 94.18 140.9 84.05 138.99 80.34C138.88 80.23 132.53 70.62 132.59 65.61C132.66 60.42 135 56.87 135.95 55.04C136.62 53.75 137.23 52.04 142.81 45.12C142.98 44.91 143.81 44.6 144.08 45.3ZM197.58 96.94C195.64 96.94 193.35 95.94 191.94 94.36C187.52 89.26 183.86 84.07 180.28 78.44C179.91 77.86 179 78.13 179 78.82L179 96.08C179 96.46 178.7 96.77 178.31 96.77L176.36 96.77C172.48 96.77 171.07 94.06 171.07 91.3L171.07 57.19C171.07 56.81 171.38 56.5 171.76 56.5L173.66 56.5C177.54 56.5 179 59.08 179 61.91L179 72.23C179 72.91 179.89 73.18 180.27 72.62C183.44 67.91 186.69 63.12 190.59 58.97C192.7 56.67 193.58 56.5 196.7 56.5L202.23 56.5L202.23 56.79C199.18 59.9 191.47 69.13 187.33 74.92C187.17 75.16 187.17 75.47 187.33 75.7C191 81.07 194.59 87 199.58 91.24C200.54 92 201.26 92.42 202.12 92.71C202.48 92.82 202.68 93.21 202.57 93.57C201.83 95.96 200.55 96.94 197.58 96.94ZM239.13 62.67C237.01 70.08 232.07 79.01 229.78 82.95C222.08 96 220.02 97.24 214.61 97.24C212.08 97.24 209.14 95.3 209.14 92.01L209.14 91.25C209.14 90.89 209.43 90.58 209.8 90.57L213.02 90.42C215.73 90.31 217.55 88.08 219.03 86.05C219.2 85.82 219.21 85.5 219.04 85.26C214.01 78.04 207.85 66.48 205.43 57.36C205.31 56.92 205.65 56.5 206.1 56.5L209.67 56.5C212.5 56.5 214.2 58.26 214.85 60.44C216.33 65.61 219.78 72.54 222.87 77.74C223.14 78.21 223.81 78.2 224.07 77.72C227.17 71.98 230.84 63.6 232.31 57.03C232.38 56.72 232.66 56.5 232.98 56.5L236.31 56.5C238.48 56.5 239.77 57.44 239.77 59.5C239.77 60.49 239.42 61.73 239.13 62.67Z" />
		<path id="Path 9" fill-rule="evenodd" class="shp2" d="M258.14 97.18L254.56 97.18C246.8 97.18 242.97 93.65 242.97 87.54L242.97 61.79C242.97 58.2 244.97 56.5 248.5 56.5L269.56 56.5C269.94 56.5 270.25 56.81 270.25 57.19L270.25 59.61C270.25 61.26 268.9 63.43 265.84 63.43L251.6 63.43C251.22 63.43 250.91 63.74 250.91 64.12L250.91 71.4C250.91 71.87 251.37 72.21 251.81 72.05C253.42 71.5 255.76 71.13 258.14 71.13C267.14 71.13 272.49 76.25 272.49 84.36C272.49 92.48 266.37 97.18 258.14 97.18ZM257.55 77.48C255.38 77.48 253.06 77.68 251.33 78.36C251.07 78.46 250.91 78.72 250.91 79L250.91 87.89C251.15 89.54 252.85 90.42 255.03 90.42L257.67 90.42C261.96 90.42 264.37 88.42 264.37 83.66C264.37 79.72 262.14 77.48 257.55 77.48ZM1269.37 76.6L1250.66 76.6C1250.23 76.6 1249.88 76.25 1249.88 75.83L1249.88 73.07C1249.88 72.65 1250.23 72.3 1250.66 72.3L1269.37 72.3C1269.8 72.3 1270.15 72.65 1270.15 73.07L1270.15 75.83C1270.15 76.25 1269.8 76.6 1269.37 76.6Z" />
		<path id="Path 10" fill-rule="evenodd" class="shp2" d="M1268.77 77.97L1268.77 87.2C1268.77 88.64 1267.6 89.81 1266.16 89.81L1253.87 89.81C1252.43 89.81 1251.26 88.64 1251.26 87.2L1251.26 77.97L1268.77 77.97ZM1262.58 80.26C1262.58 80.15 1262.48 80.05 1262.37 80.05L1257.66 80.05C1257.54 80.05 1257.45 80.15 1257.45 80.26L1257.45 81.04C1257.45 81.15 1257.54 81.24 1257.66 81.24L1262.37 81.24C1262.48 81.24 1262.58 81.15 1262.58 81.04L1262.58 80.26ZM1312.44 89.77L1307.85 89.77C1305.61 89.77 1303.79 87.61 1303.79 84.94L1303.79 77.25C1303.79 74.59 1305.61 72.42 1307.85 72.42L1312.38 72.42C1312.41 74.1 1312.38 76.09 1312.38 76.09L1310.15 76.09C1308.63 76.09 1307.4 77.55 1307.4 79.36L1307.4 82.84C1307.4 84.65 1308.63 86.11 1310.15 86.11L1312.47 86.11C1312.47 86.11 1312.49 86.67 1312.44 89.77ZM1311.05 84.59C1310.04 84.59 1309.22 83.77 1309.22 82.76L1309.22 79.26C1309.22 78.25 1310.04 77.43 1311.05 77.43L1314.27 77.43L1314.32 72.81C1314.33 72.39 1314.88 72.18 1315.22 72.46L1324.36 79.95C1325.07 80.54 1325.07 81.48 1324.35 82.06L1315.02 89.56C1314.68 89.84 1314.13 89.62 1314.13 89.2L1314.18 84.59L1311.05 84.59Z" />
	</g>
</svg>