<svg width="254.99999999999997" height="522" xmlns="http://www.w3.org/2000/svg">
 <style>tspan { white-space:pre }
		.shp0 { fill: none;stroke: #0063a0;stroke-width: 2 } 
		.shp1 { fill: #010101 } 
		.shp2 { fill: #000000;stroke: #000000;stroke-width: 0.2 } 
		.shp3 { fill: #767676 } 
		.shp4 { fill: #000000 } 
		.shp5 { fill: #3974c1 } 
		.shp6 { fill: none }</style>

 <g>
  <title>background</title>
  <rect fill="none" id="canvas_background" height="602" width="802" y="-1" x="-1"/>
 </g>
 <g>
  <title>Layer 1</title>
  <path d="m25.32,1l204.36,0c13.45,0 24.32,10.87 24.32,24.32l0,471.36c0,13.45 -10.87,24.32 -24.32,24.32l-204.36,0c-13.45,0 -24.32,-10.87 -24.32,-24.32l0,-471.36c0,-13.45 10.87,-24.32 24.32,-24.32z" class="shp0" id="Layer"/>
  <path d="m179.6,14.1l-108.8,0c-4.2,0 -7.6,-3.4 -7.6,-7.6l0,-5.5l124,0l0,5.5c0,4.2 -3.4,7.6 -7.6,7.6z" class="shp0" id="Layer"/>
  <g id="Layer">
   <path d="m201.83,5.47l1.99,0l0,7.47l-1.99,0l0,-7.47z" class="shp1" id="Layer"/>
   <path d="m198.88,6.75l1.99,0l0,6.19l-1.99,0l0,-6.19z" class="shp1" id="Layer"/>
   <path d="m195.93,8.12l1.99,0l0,4.82l-1.99,0l0,-4.82z" class="shp1" id="Layer"/>
   <path d="m192.99,9.43l1.99,0l0,3.51l-1.99,0l0,-3.51z" class="shp1" id="Layer"/>
  </g>
  <g id="Layer">
   <path d="m216.09,7.59l-0.6,0.57c-0.53,-0.52 -1.15,-0.93 -1.84,-1.21c-0.68,-0.28 -1.42,-0.43 -2.16,-0.43c-0.74,0 -1.48,0.15 -2.16,0.43c-0.69,0.28 -1.31,0.69 -1.84,1.21l-0.64,-0.65c0.15,-0.15 0.3,-0.3 0.46,-0.43c0.16,-0.14 0.33,-0.27 0.51,-0.38c0.17,-0.12 0.36,-0.23 0.54,-0.33c0.19,-0.1 0.38,-0.18 0.58,-0.26c0.58,-0.25 1.2,-0.41 1.83,-0.48c0.63,-0.07 1.27,-0.05 1.89,0.06c0.63,0.12 1.23,0.32 1.8,0.61c0.56,0.29 1.08,0.66 1.54,1.1l0.08,0l0.01,0.19z" class="shp2" id="Layer"/>
   <path d="m214.82,8.83l-0.66,0.63c-0.18,-0.17 -0.37,-0.33 -0.58,-0.46c-0.21,-0.14 -0.43,-0.26 -0.66,-0.35c-0.23,-0.09 -0.47,-0.16 -0.71,-0.21c-0.24,-0.05 -0.49,-0.07 -0.74,-0.07c-0.25,0 -0.49,0.02 -0.74,0.07c-0.24,0.04 -0.48,0.11 -0.71,0.21c-0.23,0.09 -0.45,0.2 -0.65,0.34c-0.21,0.13 -0.4,0.29 -0.58,0.46l-0.62,-0.65c0.44,-0.43 0.96,-0.78 1.53,-1.01c0.57,-0.23 1.18,-0.35 1.8,-0.35c0.62,0 1.23,0.13 1.8,0.37c0.57,0.23 1.08,0.58 1.52,1.02l0,0z" class="shp2" id="Layer"/>
   <path d="m210.08,10.78l-0.62,-0.62c0.26,-0.26 0.57,-0.47 0.92,-0.62c0.34,-0.14 0.71,-0.21 1.08,-0.21c0.37,0 0.74,0.07 1.08,0.21c0.35,0.15 0.66,0.36 0.92,0.62l-0.63,0.63c-0.18,-0.17 -0.4,-0.31 -0.63,-0.41c-0.24,-0.09 -0.49,-0.14 -0.74,-0.14c-0.26,0 -0.51,0.04 -0.74,0.14c-0.24,0.09 -0.46,0.23 -0.64,0.4l0,0z" class="shp2" id="Layer"/>
   <path d="m210.74,12.21c0,-0.3 0.17,-0.57 0.45,-0.69c0.28,-0.12 0.6,-0.06 0.81,0.16c0.22,0.21 0.28,0.53 0.16,0.81c-0.12,0.28 -0.39,0.45 -0.69,0.45c-0.1,0 -0.19,-0.02 -0.28,-0.05c-0.09,-0.04 -0.17,-0.09 -0.24,-0.16c-0.07,-0.07 -0.12,-0.15 -0.16,-0.24c-0.03,-0.09 -0.05,-0.18 -0.05,-0.28z" class="shp2" id="Layer"/>
  </g>
  <g id="Layer">
   <path d="m221,12.94c-0.25,0 -0.51,-0.05 -0.74,-0.15c-0.23,-0.1 -0.45,-0.24 -0.62,-0.42c-0.18,-0.18 -0.32,-0.39 -0.42,-0.63c-0.09,-0.23 -0.14,-0.49 -0.14,-0.74l0,-3.6c0,-0.25 0.05,-0.5 0.14,-0.74c0.1,-0.23 0.24,-0.44 0.42,-0.62c0.18,-0.18 0.39,-0.33 0.62,-0.42c0.24,-0.1 0.49,-0.15 0.74,-0.15l11.93,0c0.25,0 0.5,0.05 0.74,0.15c0.23,0.09 0.45,0.24 0.62,0.42c0.18,0.17 0.33,0.39 0.42,0.62c0.1,0.24 0.15,0.49 0.15,0.74l0,3.6c0,0.25 -0.05,0.5 -0.14,0.74c-0.1,0.23 -0.24,0.45 -0.42,0.63c-0.18,0.18 -0.39,0.32 -0.62,0.42c-0.24,0.1 -0.49,0.15 -0.74,0.15l-11.94,0zm0,-6.78c-0.16,0 -0.32,0.03 -0.47,0.1c-0.15,0.06 -0.29,0.15 -0.4,0.27c-0.12,0.11 -0.21,0.25 -0.27,0.4c-0.07,0.15 -0.1,0.31 -0.1,0.47l0,3.6c0,0.16 0.03,0.33 0.09,0.48c0.07,0.15 0.16,0.28 0.27,0.4c0.12,0.12 0.25,0.21 0.4,0.27c0.16,0.07 0.32,0.1 0.48,0.1l11.93,0c0.16,0 0.33,-0.03 0.48,-0.1c0.15,-0.06 0.29,-0.15 0.4,-0.27c0.12,-0.11 0.21,-0.25 0.27,-0.4c0.07,-0.15 0.1,-0.32 0.1,-0.48l0,-3.6c0,-0.16 -0.03,-0.32 -0.1,-0.47c-0.06,-0.15 -0.15,-0.29 -0.27,-0.4c-0.11,-0.12 -0.25,-0.21 -0.4,-0.27c-0.15,-0.07 -0.31,-0.1 -0.47,-0.1l-11.94,0z" class="shp3" fill-rule="evenodd" id="Layer"/>
   <path d="m220.97,6.65l12.01,0c0.4,0 0.73,0.33 0.73,0.73l0,3.65c0,0.4 -0.33,0.73 -0.73,0.73l-12.01,0c-0.4,0 -0.73,-0.33 -0.73,-0.73l0,-3.65c0,-0.4 0.33,-0.73 0.73,-0.73z" class="shp4" id="Layer"/>
   <path d="m234.68,8.4l0.78,0c0.05,0 0.1,0.01 0.15,0.03c0.05,0.02 0.1,0.05 0.13,0.09c0.04,0.03 0.07,0.08 0.09,0.13c0.02,0.05 0.03,0.1 0.03,0.15l0,0.81c0,0.05 -0.01,0.1 -0.03,0.15c-0.02,0.05 -0.05,0.1 -0.09,0.13c-0.03,0.04 -0.08,0.07 -0.13,0.09c-0.05,0.02 -0.1,0.03 -0.15,0.03l-0.78,0l0,-1.61z" class="shp3" id="Layer"/>
  </g>
  <g id="Layer">
   <path d="m210.3,38.35l8.6,0c0.2,0 0.36,0.16 0.36,0.36l0,1.26c0,0.2 -0.16,0.36 -0.36,0.36l-8.6,0c-0.2,0 -0.36,-0.16 -0.36,-0.36l0,-1.26c0,-0.2 0.16,-0.36 0.36,-0.36z" class="shp5" id="Layer"/>
   <path d="m218.62,41l0,4.25c0,0.16 -0.03,0.31 -0.09,0.46c-0.06,0.14 -0.15,0.27 -0.26,0.38c-0.11,0.11 -0.24,0.2 -0.38,0.26c-0.15,0.06 -0.3,0.09 -0.46,0.09l-5.66,0c-0.16,0 -0.31,-0.03 -0.46,-0.09c-0.14,-0.06 -0.28,-0.14 -0.39,-0.25c-0.11,-0.12 -0.2,-0.25 -0.26,-0.39c-0.06,-0.15 -0.09,-0.3 -0.09,-0.46l0,-4.25l8.05,0zm-2.84,1c0,-0.01 0,-0.03 -0.01,-0.04c0,-0.01 -0.01,-0.02 -0.02,-0.03c-0.01,-0.01 -0.02,-0.01 -0.03,-0.02c-0.01,0 -0.03,0 -0.04,0l-2.16,0c-0.01,0 -0.03,0 -0.04,0c-0.01,0.01 -0.02,0.01 -0.03,0.02c-0.01,0.01 -0.02,0.02 -0.02,0.03c-0.01,0.01 -0.01,0.03 -0.01,0.04l0,0.41c0,0.01 0,0.03 0.01,0.04c0,0.01 0.01,0.02 0.02,0.03c0.01,0.01 0.02,0.02 0.03,0.02c0.01,0.01 0.03,0.01 0.04,0.01l2.16,0c0.01,0 0.03,0 0.04,-0.01c0.01,0 0.02,-0.01 0.03,-0.02c0.01,-0.01 0.02,-0.02 0.02,-0.03c0.01,-0.01 0.01,-0.03 0.01,-0.04l0,-0.41z" class="shp5" fill-rule="evenodd" id="Layer"/>
  </g>
  <g id="Layer">
   <path d="m230.44,44.7l-1.07,0c-0.18,-0.02 -0.36,-0.07 -0.52,-0.15c-0.16,-0.09 -0.3,-0.2 -0.42,-0.34c-0.11,-0.14 -0.2,-0.3 -0.26,-0.47c-0.05,-0.18 -0.07,-0.36 -0.06,-0.54l0,-1.6c-0.01,-0.18 0.01,-0.36 0.06,-0.54c0.06,-0.17 0.15,-0.33 0.26,-0.47c0.12,-0.14 0.26,-0.25 0.42,-0.34c0.16,-0.08 0.34,-0.13 0.52,-0.15l1,0c0,0 0,-0.92 0,-1.69l-2.08,0c-0.27,0.03 -0.53,0.1 -0.77,0.23c-0.23,0.12 -0.45,0.29 -0.62,0.5c-0.17,0.2 -0.3,0.44 -0.39,0.7c-0.08,0.25 -0.11,0.52 -0.09,0.79l0,3.54c-0.02,0.27 0.01,0.54 0.09,0.79c0.09,0.26 0.22,0.5 0.39,0.7c0.17,0.21 0.39,0.38 0.62,0.5c0.24,0.13 0.5,0.2 0.77,0.23l2.11,0c0.05,-1.39 0.04,-1.69 0.04,-1.69z" class="shp5" id="Layer"/>
   <path d="m229.67,40.71l2.84,0c0.46,0 0.84,0.38 0.84,0.84l0,1.61c0,0.46 -0.38,0.84 -0.84,0.84l-2.84,0c-0.46,0 -0.84,-0.38 -0.84,-0.84l0,-1.61c0,-0.46 0.38,-0.84 0.84,-0.84z" class="shp5" id="Layer"/>
   <path d="m231.18,38.59l-0.09,7.54c0.01,0.04 0.02,0.09 0.05,0.12c0.03,0.04 0.07,0.07 0.11,0.08c0.04,0.02 0.08,0.02 0.13,0.02c0.04,-0.01 0.09,-0.03 0.12,-0.06l4,-3.21c0.11,-0.08 0.2,-0.19 0.27,-0.32c0.06,-0.13 0.09,-0.26 0.09,-0.41c0,-0.14 -0.03,-0.27 -0.09,-0.4c-0.07,-0.13 -0.16,-0.24 -0.27,-0.32l-3.91,-3.2c-0.03,-0.03 -0.08,-0.05 -0.12,-0.06c-0.05,0 -0.09,0 -0.13,0.02c-0.04,0.01 -0.08,0.04 -0.11,0.08c-0.03,0.03 -0.04,0.08 -0.05,0.12l0,0z" class="shp5" id="Layer"/>
  </g>
  <path class="shp6" id="Layer"/>
 </g>
</svg>