<svg xmlns="http://www.w3.org/2000/svg" viewBox="0 0 122 122" width="122" height="122">
	<style>
		tspan { white-space:pre }
		.shp0 { fill: #ffffff } 
		.shp1 { fill: none;stroke: #969799;stroke-linecap:round;stroke-width: 5 } 
		.shp2 { fill: none;stroke: #969799;stroke-width: 5 } 
		.shp3 { fill: #ffffff;stroke: #969799;stroke-width: 5 } 
		.shp4 { fill: #969799 } 
	</style>
	<path id="Path 37" class="shp0" d="M345.33 -223C345.33 -173.89 305.52 -134.08 256.41 -134.08C207.3 -134.08 167.49 -173.89 167.49 -223C167.49 -272.11 207.3 -311.93 256.41 -311.93C305.52 -311.93 345.33 -272.11 345.33 -223Z" />
	<path id="Path 38" class="shp1" d="M220.07 -242L258.07 -204L292.74 -238.67" />
	<path id="Path 11" class="shp2" d="M-2317.56 61.04C-2317.56 91.97 -2342.64 117.04 -2373.56 117.04C-2404.49 117.04 -2429.56 91.97 -2429.56 61.04C-2429.56 30.11 -2404.49 5.04 -2373.56 5.04C-2342.64 5.04 -2317.56 30.11 -2317.56 61.04ZM-2374.23 33.21L-2374.23 84.54M-2347.9 58.87L-2400.56 58.87M-2663.52 -2380.55L-2726.19 -2380.55C-2730.98 -2380.55 -2734.86 -2384.43 -2734.86 -2389.22L-2734.86 -2455.89C-2734.86 -2460.67 -2730.98 -2464.55 -2726.19 -2464.55L-2663.52 -2464.55C-2658.74 -2464.55 -2654.86 -2460.67 -2654.86 -2455.89L-2654.86 -2389.22C-2654.86 -2384.43 -2658.74 -2380.55 -2663.52 -2380.55Z" />
	<path id="Path 12" class="shp3" d="M-2702.72 -2427.69L-2657.27 -2473.14C-2654.93 -2475.49 -2651.12 -2475.49 -2648.77 -2473.14L-2641.61 -2465.97C-2639.26 -2463.62 -2639.26 -2459.82 -2641.61 -2457.47L-2686 -2413.08C-2686.67 -2412.4 -2687.49 -2411.9 -2688.4 -2411.6L-2708.46 -2405.01C-2709.06 -2404.82 -2709.64 -2405.36 -2709.47 -2405.97L-2704.28 -2425C-2704 -2426.02 -2703.46 -2426.95 -2702.72 -2427.69Z" />
	<path id="Path 13" class="shp2" d="M119.18 61.04C119.18 93.07 93.21 119.04 61.18 119.04C29.15 119.04 3.18 93.07 3.18 61.04C3.18 29.01 29.15 3.04 61.18 3.04C93.21 3.04 119.18 29.01 119.18 61.04ZM29.93 72.87C29.93 72.87 37.43 99.37 61.18 99.37C88.26 99.37 92.43 72.87 92.43 72.87C92.43 72.87 59.26 73.04 29.93 72.87Z" />
	<path id="Path 14" class="shp4" d="M39.8 52.47L39.39 52.47C36.39 52.47 33.96 50.04 33.96 47.04C33.96 44.04 36.39 41.61 39.39 41.61L39.8 41.61C42.8 41.61 45.23 44.04 45.23 47.04C45.23 50.04 42.8 52.47 39.8 52.47ZM82.97 52.47L82.56 52.47C79.56 52.47 77.13 50.04 77.13 47.04C77.13 44.04 79.56 41.61 82.56 41.61L82.97 41.61C85.96 41.61 88.39 44.04 88.39 47.04C88.39 50.04 85.96 52.47 82.97 52.47Z" />
	<path id="Path 15" class="shp2" d="M305.41 81.52C292.57 81.52 282.16 71.11 282.16 58.27L282.16 26.77C282.16 13.93 292.57 3.52 305.41 3.52C318.25 3.52 328.66 13.93 328.66 26.77L328.66 58.27C328.66 71.11 318.25 81.52 305.41 81.52ZM305.41 101.56L305.41 118.56M345.33 61.15C345.33 83.19 327.46 101.06 305.41 101.06C283.37 101.06 265.5 83.19 265.5 61.15" />
</svg>