<svg xmlns="http://www.w3.org/2000/svg" viewBox="0 0 111 88" width="111" height="88">
	<style>
		tspan { white-space:pre }
		.shp0 { fill: none;stroke: #969799;stroke-width: 5 } 
	</style>
	<path id="Path 72" fill-rule="evenodd" class="shp0" d="M45.17 73C45.17 71.57 44.01 70.42 42.59 70.42L33.56 70.46C21.94 70.46 20.27 61.08 20.27 52.35L20.27 35.46C20.27 26.72 22.8 17.34 33.56 17.34L41.82 17.34C43.23 17.34 44.38 16.22 44.4 14.81C44.43 12.45 44.45 8.66 44.4 4.44C44.38 3.03 43.23 1.89 41.82 1.89L22.45 1.89C11.59 1.89 2.79 12.36 2.79 25.28L2.79 62.53C2.79 75.44 11.59 85.91 22.45 85.91L42.6 85.91C44.02 85.91 45.17 84.76 45.17 83.34L45.17 73ZM105.92 38.88L62.6 3.4C60.98 2.07 58.36 3.08 58.34 5.02L58.09 29.27L42.82 29.27C38.04 29.27 34.17 33.12 34.17 37.92L34.17 49.89C34.17 54.67 38.04 58.54 42.82 58.54L57.69 58.54L57.44 82.75C57.42 84.71 60.03 85.74 61.68 84.41L105.88 48.88C109.28 46.16 109.3 41.65 105.92 38.88Z" />
</svg>