<svg xmlns="http://www.w3.org/2000/svg" viewBox="0 0 50 40" width="20" height="16">
	<style>
		tspan { white-space:pre }
		.shp0 { fill: none;stroke: #969799;stroke-width: 2.262 } 
	</style>
	<path id="Path 72" fill-rule="evenodd" class="shp0" d="M20.35 33.18C20.35 32.53 19.82 32.01 19.18 32.01L15.12 32.03C9.88 32.03 9.13 27.76 9.13 23.8L9.13 16.12C9.13 12.15 10.27 7.88 15.12 7.88L18.84 7.88C19.47 7.88 19.99 7.37 20 6.73C20.01 5.66 20.02 3.94 20 2.02C19.99 1.38 19.47 0.86 18.84 0.86L10.11 0.86C5.22 0.86 1.26 5.62 1.26 11.49L1.26 28.42C1.26 34.29 5.22 39.05 10.11 39.05L19.19 39.05C19.83 39.05 20.35 38.53 20.35 37.88L20.35 33.18ZM47.71 17.67L28.2 1.55C27.47 0.94 26.29 1.4 26.28 2.28L26.17 13.3L19.29 13.3C17.14 13.3 15.39 15.05 15.39 17.24L15.39 22.68C15.39 24.85 17.14 26.61 19.29 26.61L25.99 26.61L25.87 37.61C25.86 38.5 27.04 38.97 27.78 38.37L47.69 22.22C49.23 20.98 49.23 18.93 47.71 17.67Z" />
</svg>