<svg xmlns="http://www.w3.org/2000/svg" viewBox="0 0 113 90" width="113" height="90">
	<style>
		tspan { white-space:pre }
		.shp0 { fill: none;stroke: #969799;stroke-width: 5 } 
	</style>
	<path id="Path 72" class="shp0" d="M46.17 74C46.17 72.57 45.01 71.42 43.59 71.42L34.56 71.46C22.94 71.46 21.27 62.08 21.27 53.35L21.27 36.46C21.27 27.72 23.8 18.34 34.56 18.34L42.82 18.34C44.23 18.34 45.38 17.22 45.4 15.81C45.43 13.45 45.45 9.66 45.4 5.44C45.38 4.03 44.23 2.89 42.82 2.89L23.45 2.89C12.59 2.89 3.79 13.36 3.79 26.28L3.79 63.53C3.79 76.44 12.59 86.91 23.45 86.91L43.6 86.91C45.02 86.91 46.17 85.76 46.17 84.34L46.17 74ZM106.88 49.88L62.68 85.41C61.03 86.74 58.42 85.71 58.44 83.75L58.69 59.54L43.82 59.54C39.04 59.54 35.17 55.67 35.17 50.89L35.17 38.92C35.17 34.12 39.04 30.27 43.82 30.27L59.09 30.27L59.34 6.02C59.36 4.08 61.98 3.07 63.6 4.4L106.92 39.88C110.3 42.65 110.28 47.16 106.88 49.88Z" />
</svg>