<svg xmlns="http://www.w3.org/2000/svg" viewBox="0 0 87 91" width="38" height="40">
	<style>
		tspan { white-space:pre }
		.shp0 { fill: none;stroke: #969799;stroke-width: 5 } 
		.shp1 { fill: none;stroke: #969799;stroke-linecap:round;stroke-width: 5 } 
		.shp2 { fill: #969799 } 
		.shp3 { fill: #ffffff } 
		.shp4 { fill: #ffffff;stroke: #969799;stroke-width: 5 } 
		.shp5 { fill: none;stroke: #b70000;stroke-width: 4 } 
	</style>
	<path id="Path 28" class="shp0" d="M70.98 37.44C70.98 55.96 55.97 70.97 37.45 70.97C18.94 70.97 3.92 55.96 3.92 37.44C3.92 18.92 18.94 3.91 37.45 3.91C55.97 3.91 70.98 18.92 70.98 37.44Z" />
	<path id="Path 29" class="shp1" d="M83.6 86.96L60.12 63.48" />
	<path id="Path 25" class="shp2" d="M-3398.9 55.27C-3398.9 58.96 -3401.88 61.94 -3405.56 61.94C-3409.25 61.94 -3412.23 58.96 -3412.23 55.27C-3412.23 51.59 -3409.25 48.61 -3405.56 48.61C-3401.88 48.61 -3398.9 51.59 -3398.9 55.27ZM-3369.48 55.27C-3369.48 58.96 -3372.47 61.94 -3376.15 61.94C-3379.83 61.94 -3382.82 58.96 -3382.82 55.27C-3382.82 51.59 -3379.83 48.61 -3376.15 48.61C-3372.47 48.61 -3369.48 51.59 -3369.48 55.27ZM-3428.31 55.27C-3428.31 58.96 -3431.3 61.94 -3434.98 61.94C-3438.66 61.94 -3441.65 58.96 -3441.65 55.27C-3441.65 51.59 -3438.66 48.61 -3434.98 48.61C-3431.3 48.61 -3428.31 51.59 -3428.31 55.27ZM876.86 45.43C876.86 49.12 873.88 52.1 870.2 52.1C866.52 52.1 863.53 49.12 863.53 45.43C863.53 41.75 866.52 38.77 870.2 38.77C873.88 38.77 876.86 41.75 876.86 45.43ZM906.28 45.43C906.28 49.12 903.3 52.1 899.61 52.1C895.93 52.1 892.95 49.12 892.95 45.43C892.95 41.75 895.93 38.77 899.61 38.77C903.3 38.77 906.28 41.75 906.28 45.43ZM847.45 45.43C847.45 49.12 844.46 52.1 840.78 52.1C837.1 52.1 834.11 49.12 834.11 45.43C834.11 41.75 837.1 38.77 840.78 38.77C844.46 38.77 847.45 41.75 847.45 45.43Z" />
	<path id="Path 38" class="shp1" d="M812.07 2241L850.07 2279L884.74 2244.33" />
	<path id="Path 10" class="shp3" d="M701.1 2630.54L-1571.76 2630.54C-1619.53 2630.54 -1658.26 2591.81 -1658.26 2544.04C-1658.26 2496.27 -1619.53 2457.54 -1571.76 2457.54L701.1 2457.54C748.87 2457.54 787.6 2496.27 787.6 2544.04C787.6 2591.81 748.87 2630.54 701.1 2630.54Z" />
	<path id="Path 11" fill-rule="evenodd" class="shp0" d="M-1725.56 2544.04C-1725.56 2574.97 -1750.64 2600.04 -1781.56 2600.04C-1812.49 2600.04 -1837.56 2574.97 -1837.56 2544.04C-1837.56 2513.11 -1812.49 2488.04 -1781.56 2488.04C-1750.64 2488.04 -1725.56 2513.11 -1725.56 2544.04ZM-2071.52 102.45L-2134.19 102.45C-2138.98 102.45 -2142.86 98.57 -2142.86 93.78L-2142.86 27.11C-2142.86 22.33 -2138.98 18.45 -2134.19 18.45L-2071.52 18.45C-2066.74 18.45 -2062.86 22.33 -2062.86 27.11L-2062.86 93.78C-2062.86 98.57 -2066.74 102.45 -2071.52 102.45ZM-1782.23 2516.21L-1782.23 2567.54M-1755.9 2541.87L-1808.56 2541.87" />
	<path id="Path 12" class="shp4" d="M-2110.72 55.31L-2065.27 9.86C-2062.93 7.51 -2059.12 7.51 -2056.77 9.86L-2049.61 17.03C-2047.26 19.38 -2047.26 23.18 -2049.61 25.53L-2094 69.92C-2094.67 70.6 -2095.49 71.1 -2096.4 71.4L-2116.46 77.99C-2117.06 78.18 -2117.64 77.64 -2117.47 77.03L-2112.28 58C-2112 56.98 -2111.46 56.05 -2110.72 55.31Z" />
	<path id="Path 13" fill-rule="evenodd" class="shp0" d="M711.18 2544.04C711.18 2576.07 685.21 2602.04 653.18 2602.04C621.15 2602.04 595.18 2576.07 595.18 2544.04C595.18 2512.01 621.15 2486.04 653.18 2486.04C685.21 2486.04 711.18 2512.01 711.18 2544.04ZM621.93 2555.87C621.93 2555.87 629.43 2582.37 653.18 2582.37C680.26 2582.37 684.43 2555.87 684.43 2555.87C684.43 2555.87 651.26 2556.04 621.93 2555.87Z" />
	<path id="Path 14" class="shp2" d="M631.8 2535.47L631.39 2535.47C628.39 2535.47 625.96 2533.04 625.96 2530.04C625.96 2527.04 628.39 2524.61 631.39 2524.61L631.8 2524.61C634.8 2524.61 637.23 2527.04 637.23 2530.04C637.23 2533.04 634.8 2535.47 631.8 2535.47ZM674.97 2535.47L674.56 2535.47C671.56 2535.47 669.13 2533.04 669.13 2530.04C669.13 2527.04 671.56 2524.61 674.56 2524.61L674.97 2524.61C677.96 2524.61 680.39 2527.04 680.39 2530.04C680.39 2533.04 677.96 2535.47 674.97 2535.47Z" />
	<path id="Path 15" fill-rule="evenodd" class="shp0" d="M897.41 2564.52C884.57 2564.52 874.16 2554.11 874.16 2541.27L874.16 2509.77C874.16 2496.93 884.57 2486.52 897.41 2486.52C910.25 2486.52 920.66 2496.93 920.66 2509.77L920.66 2541.27C920.66 2554.11 910.25 2564.52 897.41 2564.52ZM857.5 2544.15C857.5 2566.19 875.37 2584.06 897.41 2584.06C919.46 2584.06 937.33 2566.19 937.33 2544.15M897.41 2584.56L897.41 2601.56" />
	<path id="Path 2" class="shp5" d="M1018.57 3003.14L-3576.57 3003.14C-3632.4 3003.14 -3677.66 2957.88 -3677.66 2902.05L-3677.66 -308.09C-3677.66 -363.92 -3632.4 -409.18 -3576.57 -409.18L1018.57 -409.18C1074.4 -409.18 1119.66 -363.92 1119.66 -308.09L1119.66 2902.05C1119.66 2957.88 1074.4 3003.14 1018.57 3003.14Z" />
	<path id="Path 39" fill-rule="evenodd" class="shp0" d="M257.3 71.92C257.3 82 249.12 90.18 239.04 90.18C236.32 90.18 231.46 88.68 231.46 88.68C184.46 71.02 168.26 26.06 168.26 26.06C167.32 23.86 166.8 21.46 166.8 18.92C166.8 8.86 174.98 0.68 185.04 0.68C195.12 0.68 203.3 8.86 203.3 18.92C203.3 25.6 199.7 31.46 194.32 34.64C195.6 37.22 203.68 52.38 222.96 62.92C222.96 62.92 232.14 53.68 239.04 53.68C249.12 53.68 257.3 61.86 257.3 71.92ZM432.39 20.18L432.37 73.32C432.37 75.56 429.65 76.68 428.07 75.1L407.89 54.93C407.18 54.22 405.97 54.72 405.97 55.73L405.97 72.94C405.97 77.26 402.47 80.76 398.15 80.76L336.13 80.76C331.81 80.76 328.29 77.24 328.29 72.92L328.29 17.94C328.29 13.6 331.81 10.1 336.13 10.1L398.13 10.1C402.45 10.1 405.97 13.6 405.97 17.94L405.97 37.8C405.97 38.8 407.18 39.31 407.89 38.6L428.09 18.4C429.67 16.82 432.39 17.94 432.39 20.18ZM761.66 29.63L678.69 29.63C676.79 29.63 675.25 28.09 675.25 26.19L675.25 13.99C675.25 12.09 676.79 10.55 678.69 10.55L761.66 10.55C763.56 10.55 765.1 12.09 765.1 13.99L765.1 26.19C765.1 28.09 763.56 29.63 761.66 29.63ZM758.99 37.56L758.99 74.77C758.99 81.16 753.82 86.33 747.43 86.33L692.92 86.33C686.54 86.33 681.36 81.16 681.36 74.77L681.36 37.56L758.99 37.56ZM738.14 49.22C738.14 48.47 737.54 47.86 736.79 47.86L705.61 47.86C704.86 47.86 704.25 48.47 704.25 49.22L704.25 54.39C704.25 55.14 704.86 55.75 705.61 55.75L736.79 55.75C737.54 55.75 738.14 55.14 738.14 54.39L738.14 49.22Z" />
	<path id="Path 72" fill-rule="evenodd" class="shp0" d="M549.17 74C549.17 72.57 548.01 71.42 546.59 71.42L537.56 71.46C525.94 71.46 524.27 62.08 524.27 53.35L524.27 36.46C524.27 27.72 526.8 18.34 537.56 18.34L545.82 18.34C547.23 18.34 548.38 17.22 548.4 15.81C548.43 13.45 548.45 9.66 548.4 5.44C548.38 4.03 547.23 2.89 545.82 2.89L526.45 2.89C515.59 2.89 506.79 13.36 506.79 26.28L506.79 63.53C506.79 76.44 515.59 86.91 526.45 86.91L546.6 86.91C548.02 86.91 549.17 85.76 549.17 84.34L549.17 74ZM609.92 39.88L566.6 4.4C564.98 3.07 562.36 4.08 562.34 6.02L562.09 30.27L546.82 30.27C542.04 30.27 538.17 34.12 538.17 38.92L538.17 50.89C538.17 55.67 542.04 59.54 546.82 59.54L561.69 59.54L561.44 83.75C561.42 85.71 564.03 86.74 565.68 85.41L609.88 49.88C613.28 47.16 613.3 42.65 609.92 39.88Z" />
</svg>