<?xml version="1.0" encoding="utf-8"?>
<!-- Generator: Adobe Illustrator 22.0.0, SVG Export Plug-In . SVG Version: 6.00 Build 0)  -->
<svg version="1.1" id="Слой_1" xmlns="http://www.w3.org/2000/svg" xmlns:xlink="http://www.w3.org/1999/xlink" x="0px" y="0px"
	 viewBox="0 0 28 28" style="enable-background:new 0 0 28 28;" xml:space="preserve">
<style type="text/css">
	.st0{fill:url(#SVGID_1_);}
	.st1{fill:url(#SVGID_2_);}
	.st2{fill:url(#SVGID_3_);}
</style>
<g>
	<linearGradient id="SVGID_1_" gradientUnits="userSpaceOnUse" x1="8.8116" y1="2.5439" x2="12.3889" y2="8.7401">
		<stop  offset="0" style="stop-color:#004F9E"/>
		<stop  offset="0.5513" style="stop-color:#0060AC"/>
		<stop  offset="1" style="stop-color:#0069B3"/>
	</linearGradient>
	<path class="st0" d="M0.7,9.7l8-7.1c0,0,1.5-1.1,4.1-1.3c4-0.3,7.7-0.3,7.8-0.3c0.1,0,0.4-0.1,0.1,0.4c-0.3,0.6-1.2,2-2.2,3
		c-0.5,0.5-3,3.1-7,4.3c-4,1.2-6.6,1.5-9,1.6c-0.4,0-1.4,0.1-1.8,0C0.5,10.4,0.2,10.2,0.7,9.7z"/>
	<linearGradient id="SVGID_2_" gradientUnits="userSpaceOnUse" x1="11.6127" y1="11.7069" x2="11.6127" y2="27.6554">
		<stop  offset="0" style="stop-color:#14387F"/>
		<stop  offset="0.2228" style="stop-color:#0B428D"/>
		<stop  offset="0.5667" style="stop-color:#004F9E"/>
		<stop  offset="0.7524" style="stop-color:#0052A0"/>
		<stop  offset="0.8925" style="stop-color:#005CA8"/>
		<stop  offset="1" style="stop-color:#0069B3"/>
	</linearGradient>
	<path class="st1" d="M0.2,13c0.2-0.2,4.9-1.2,9.7-1.3c4.6-0.1,6.7,2,7.8,3.1c0.5,0.5,3.3,2.5,5.5,10.6c0,0.2,0,0.4-0.4,0.5
		s-2,0.4-2,0.4c0.1,0.1-7.4,1.2-9.3,1.2c-1.4,0-6.1,0.8-7.8-2.9c-0.1,0-3-6.2-3.6-10.9C0,13.6-0.1,13.3,0.2,13z"/>
	<linearGradient id="SVGID_3_" gradientUnits="userSpaceOnUse" x1="27.9522" y1="4.9767" x2="20.1606" y2="18.4722">
		<stop  offset="0" style="stop-color:#153D89"/>
		<stop  offset="0.4487" style="stop-color:#164193"/>
		<stop  offset="0.5985" style="stop-color:#0E509F"/>
		<stop  offset="0.8326" style="stop-color:#0462AE"/>
		<stop  offset="1" style="stop-color:#0069B3"/>
	</linearGradient>
	<path class="st2" d="M23.5,2.5l4.3,9.2c0,0,0.5,1.1,0,2.4s-2.3,7.1-2.3,7.1s-0.2,0.5-0.5,0.1c0,0-2.8-3.9-3.5-5.3
		c0,0-2.5-3.7-2.5-5.7c0-2,0.9-3.4,1.3-4.1c0.3-0.5,0.5-1.2,2.6-3.8C23,2.3,23.4,2.2,23.5,2.5z"/>
</g>
</svg>
