<svg xmlns="http://www.w3.org/2000/svg" viewBox="0 0 50 50" width="40" height="40">
	<style>
		tspan { white-space:pre }
		.shp0 { fill: #ffffff } 
		.shp1 { fill: none;stroke: #969799;stroke-linecap:round;stroke-width: 2.049 } 
		.shp2 { fill: none;stroke: #969799;stroke-width: 2.049 } 
		.shp3 { fill: #ffffff;stroke: #969799;stroke-width: 2.049 } 
		.shp4 { fill: #969799 } 
	</style>
	<path id="Path 37" class="shp0" d="M141.53 -91.39C141.53 -71.27 125.21 -54.95 105.09 -54.95C84.96 -54.95 68.64 -71.27 68.64 -91.39C68.64 -111.52 84.96 -127.84 105.09 -127.84C125.21 -127.84 141.53 -111.52 141.53 -91.39Z" />
	<path id="Path 38" class="shp1" d="M90.19 -99.18L105.77 -83.61L119.98 -97.82" />
	<path id="Path 11" fill-rule="evenodd" class="shp2" d="M-949.82 25.02C-949.82 37.69 -960.1 47.97 -972.77 47.97C-985.45 47.97 -995.72 37.69 -995.72 25.02C-995.72 12.34 -985.45 2.07 -972.77 2.07C-960.1 2.07 -949.82 12.34 -949.82 25.02ZM-1091.61 -975.64L-1117.29 -975.64C-1119.25 -975.64 -1120.84 -977.23 -1120.84 -979.19L-1120.84 -1006.51C-1120.84 -1008.47 -1119.25 -1010.06 -1117.29 -1010.06L-1091.61 -1010.06C-1089.65 -1010.06 -1088.06 -1008.47 -1088.06 -1006.51L-1088.06 -979.19C-1088.06 -977.23 -1089.65 -975.64 -1091.61 -975.64ZM-973.05 13.61L-973.05 34.65M-962.25 24.13L-983.84 24.13" />
	<path id="Path 12" class="shp3" d="M-1107.67 -994.95L-1089.05 -1013.58C-1088.09 -1014.55 -1086.52 -1014.55 -1085.56 -1013.58L-1082.63 -1010.64C-1081.66 -1009.68 -1081.66 -1008.12 -1082.63 -1007.16L-1100.82 -988.97C-1101.09 -988.69 -1101.43 -988.48 -1101.8 -988.36L-1110.02 -985.66C-1110.27 -985.58 -1110.51 -985.8 -1110.44 -986.05L-1108.31 -993.85C-1108.2 -994.27 -1107.98 -994.65 -1107.67 -994.95Z" />
	<path id="Path 13" fill-rule="evenodd" class="shp2" d="M48.84 25.02C48.84 38.14 38.2 48.79 25.07 48.79C11.95 48.79 1.3 38.14 1.3 25.02C1.3 11.89 11.95 1.25 25.07 1.25C38.2 1.25 48.84 11.89 48.84 25.02ZM12.27 29.86C12.27 29.86 15.34 40.73 25.07 40.73C36.17 40.73 37.88 29.86 37.88 29.86C37.88 29.86 24.29 29.93 12.27 29.86Z" />
	<path id="Path 14" class="shp4" d="M16.31 21.5L16.14 21.5C14.91 21.5 13.92 20.51 13.92 19.28C13.92 18.05 14.91 17.05 16.14 17.05L16.31 17.05C17.54 17.05 18.54 18.05 18.54 19.28C18.54 20.51 17.54 21.5 16.31 21.5ZM34 21.5L33.84 21.5C32.61 21.5 31.61 20.51 31.61 19.28C31.61 18.05 32.61 17.05 33.84 17.05L34 17.05C35.23 17.05 36.23 18.05 36.23 19.28C36.23 20.51 35.23 21.5 34 21.5Z" />
	<path id="Path 15" fill-rule="evenodd" class="shp2" d="M125.17 33.41C119.91 33.41 115.64 29.14 115.64 23.88L115.64 10.97C115.64 5.71 119.91 1.44 125.17 1.44C130.43 1.44 134.7 5.71 134.7 10.97L134.7 23.88C134.7 29.14 130.43 33.41 125.17 33.41ZM108.81 25.06C108.81 34.09 116.14 41.42 125.17 41.42C134.2 41.42 141.53 34.09 141.53 25.06M125.17 41.62L125.17 48.59" />
</svg>