<svg id="Слой_1" data-name="Слой 1" xmlns="http://www.w3.org/2000/svg" viewBox="0 0 255 520"><defs><style>.cls-1{fill:#fff;}.cls-2{fill:none;stroke:#0063a0;}.cls-2,.cls-4{stroke-miterlimit:10;}.cls-3{fill:#010101;}.cls-4{stroke:#000;stroke-width:0.2px;}.cls-5{fill:#eff1f4;}.cls-6{fill:#3974c1;}.cls-7{fill:#767676;}</style></defs><title>Монтажная область 1</title><rect class="cls-1" x="21" y="509.5" width="207" height="9.5"/><polyline class="cls-1" points="233 18 232.26 1 24.25 1 21 1.13 21 18"/><path class="cls-2" d="M63.21.44h124a0,0,0,0,1,0,0V6a7.6,7.6,0,0,1-7.6,7.6H70.81A7.6,7.6,0,0,1,63.21,6V.44A0,0,0,0,1,63.21.44Z"/><rect class="cls-3" x="202.83" y="4.47" width="1.99" height="7.47"/><rect class="cls-3" x="199.88" y="5.75" width="1.99" height="6.19"/><rect class="cls-3" x="196.93" y="7.12" width="1.99" height="4.82"/><rect class="cls-3" x="193.99" y="8.43" width="1.99" height="3.51"/><path class="cls-4" d="M217.09,6.59l-.6.57a5.7,5.7,0,0,0-8,0l-.64-.65a5.79,5.79,0,0,1,2.09-1.4A6.5,6.5,0,0,1,217,6.4l.08,0Z"/><path class="cls-4" d="M215.82,7.83l-.66.63a3.84,3.84,0,0,0-2.69-1.09,3.8,3.8,0,0,0-2.68,1.08l-.62-.65A4.71,4.71,0,0,1,215.82,7.83Z"/><path class="cls-4" d="M211.08,9.78l-.62-.62a2.82,2.82,0,0,1,4,0l-.63.63A2,2,0,0,0,211.08,9.78Z"/><path class="cls-4" d="M211.74,11.21a.74.74,0,1,1,.73.73A.72.72,0,0,1,211.74,11.21Z"/><path class="cls-1" d="M254.5,494v1.18a24.32,24.32,0,0,1-24.32,24.32H228V494Z"/><path class="cls-1" d="M254.5,24.82V26H232V.58A24.3,24.3,0,0,1,254.5,24.82Z"/><path class="cls-1" d="M22.5.62V26.5H.5V24.82A24.31,24.31,0,0,1,22.5.62Z"/><path class="cls-1" d="M21,494v25.2a24.33,24.33,0,0,1-20.5-24V494Z"/><path class="cls-2" d="M254.5,494v1.18a24.32,24.32,0,0,1-24.32,24.32H24.82A24.31,24.31,0,0,1,.5,495.18V24.82A24.31,24.31,0,0,1,22.5.62,22.24,22.24,0,0,1,24.82.5H230.18c.61,0,1.22,0,1.82.08a24.3,24.3,0,0,1,22.5,24.24V494Z"/><rect class="cls-5" x="1" y="18" width="253" height="43"/><rect class="cls-6" x="210.94" y="35.35" width="9.32" height="1.98" rx="0.36" ry="0.36"/><path class="cls-6" d="M211.57,38v4.25a1.19,1.19,0,0,0,1.2,1.19h5.66a1.19,1.19,0,0,0,1.19-1.19V38Zm5.21,1.41a.1.1,0,0,1-.1.1h-2.16a.1.1,0,0,1-.1-.1V39a.09.09,0,0,1,.1-.09h2.16a.09.09,0,0,1,.1.09Z"/><path class="cls-6" d="M231.44,41.7h-1.07a1.4,1.4,0,0,1-1.26-1.5V38.6a1.4,1.4,0,0,1,1.26-1.5h1s0-.92,0-1.69h-2.08a2.07,2.07,0,0,0-1.87,2.22v3.54a2.07,2.07,0,0,0,1.87,2.22h2.11C231.45,42,231.44,41.7,231.44,41.7Z"/><rect class="cls-6" x="229.83" y="37.71" width="4.52" height="3.29" rx="0.84" ry="0.84"/><path class="cls-6" d="M232.18,35.59l-.09,7.54a.25.25,0,0,0,.41.16l4-3.21a.91.91,0,0,0,0-1.45l-3.91-3.2A.25.25,0,0,0,232.18,35.59Z"/><rect class="cls-2" x="0.5" y="0.5" width="254" height="519" rx="24.32" ry="24.32"/><path class="cls-7" d="M233.94,11.94H222A1.92,1.92,0,0,1,220.08,10V6.4A1.92,1.92,0,0,1,222,4.47h11.93a1.93,1.93,0,0,1,1.93,1.93V10A1.93,1.93,0,0,1,233.94,11.94ZM222,5.16a1.25,1.25,0,0,0-1.24,1.24V10A1.25,1.25,0,0,0,222,11.25h11.93A1.25,1.25,0,0,0,235.18,10V6.4a1.25,1.25,0,0,0-1.24-1.24Z"/><rect x="221.24" y="5.65" width="13.47" height="5.11" rx="0.73" ry="0.73"/><path class="cls-7" d="M235.68,7.4h.78a.4.4,0,0,1,.4.4v.81a.4.4,0,0,1-.4.4h-.78a0,0,0,0,1,0,0V7.4A0,0,0,0,1,235.68,7.4Z"/></svg>