<svg id="Слой_1" data-name="Слой 1" xmlns="http://www.w3.org/2000/svg" viewBox="0 0 255 520"><defs><style>.cls-1{fill:#fff;}.cls-2{fill:none;stroke:#ff2400;}.cls-2,.cls-4{stroke-miterlimit:10;}.cls-3{fill:#010101;}.cls-4{stroke:#000;stroke-width:0.2px;}.cls-5{fill:#eff1f4;}.cls-6{fill:#ff2400;}.cls-7{fill:#767676;}</style></defs><title>Монтажная область 1</title><polyline class="cls-1" points="232.5 1.13 232.5 18 231 18 231 1"/><path class="cls-1" d="M231,18H24V1H231Z"/><path class="cls-2" d="M63.21.44h124a0,0,0,0,1,0,0V6a7.6,7.6,0,0,1-7.6,7.6H70.81A7.6,7.6,0,0,1,63.21,6V.44A0,0,0,0,1,63.21.44Z"/><rect class="cls-3" x="202.83" y="4.47" width="1.99" height="7.47"/><rect class="cls-3" x="199.88" y="5.75" width="1.99" height="6.19"/><rect class="cls-3" x="196.93" y="7.12" width="1.99" height="4.82"/><rect class="cls-3" x="193.99" y="8.43" width="1.99" height="3.51"/><path class="cls-4" d="M217.09,6.59l-.6.57a5.7,5.7,0,0,0-8,0l-.64-.65a5.79,5.79,0,0,1,2.09-1.4A6.5,6.5,0,0,1,217,6.4l.08,0Z"/><path class="cls-4" d="M215.82,7.83l-.66.63a3.84,3.84,0,0,0-2.69-1.09,3.8,3.8,0,0,0-2.68,1.08l-.62-.65A4.71,4.71,0,0,1,215.82,7.83Z"/><path class="cls-4" d="M211.08,9.78l-.62-.62a2.82,2.82,0,0,1,4,0l-.63.63A2,2,0,0,0,211.08,9.78Z"/><path class="cls-4" d="M211.74,11.21a.74.74,0,1,1,.73.73A.72.72,0,0,1,211.74,11.21Z"/><path class="cls-1" d="M253.53,18h-21V.62A24.33,24.33,0,0,1,253.53,18Z"/><path class="cls-1" d="M24.5.51V18h-23A24.32,24.32,0,0,1,24.5.51Z"/><path class="cls-5" d="M1,18h.47c-.18.62-.34,1.24-.47,1.88Z"/><polygon class="cls-5" points="254 28.5 254 61 1 61 1 22.5 24.5 22.5 24.5 18 232.5 18 232.5 28.5 254 28.5"/><path class="cls-1" d="M25.5,496.5v23h-.68a24.31,24.31,0,0,1-24.28-23Z"/><path class="cls-1" d="M254.5,24.82V28.5H254V19.88A24.35,24.35,0,0,1,254.5,24.82Z"/><path class="cls-5" d="M254,18v1.88c-.13-.64-.29-1.26-.47-1.88Z"/><path class="cls-1" d="M229.5,496.5h25a24.31,24.31,0,0,1-24.28,23h-.68Z"/><path class="cls-5" d="M24.5,18v4.5H1V19.88c.13-.64.29-1.26.47-1.88Z"/><path class="cls-5" d="M254,19.88V28.5H232.5V18h21C253.71,18.62,253.87,19.24,254,19.88Z"/><path class="cls-1" d="M1,19.88V22.5H.62A20.67,20.67,0,0,1,1,19.88Z"/><path class="cls-2" d="M254.46,496.5a24.31,24.31,0,0,1-24.28,23H24.82a24.31,24.31,0,0,1-24.28-23c0-.44,0-.88,0-1.32V24.82A22.24,22.24,0,0,1,.62,22.5,20.67,20.67,0,0,1,1,19.88c.13-.64.29-1.26.47-1.88A24.32,24.32,0,0,1,24.5.51H230.18a22.24,22.24,0,0,1,2.32.12,24.33,24.33,0,0,1,21,17.38c.18.62.34,1.24.47,1.88a24.35,24.35,0,0,1,.5,4.94V495.18C254.5,495.62,254.49,496.06,254.46,496.5Z"/><rect class="cls-6" x="210.94" y="35.35" width="9.32" height="1.98" rx="0.36" ry="0.36"/><path class="cls-6" d="M211.57,38v4.25a1.19,1.19,0,0,0,1.2,1.19h5.66a1.19,1.19,0,0,0,1.19-1.19V38Zm5.21,1.41a.1.1,0,0,1-.1.1h-2.16a.1.1,0,0,1-.1-.1V39a.09.09,0,0,1,.1-.09h2.16a.09.09,0,0,1,.1.09Z"/><path class="cls-6" d="M231.44,41.7h-1.07a1.4,1.4,0,0,1-1.26-1.5V38.6a1.4,1.4,0,0,1,1.26-1.5h1s0-.92,0-1.69h-2.08a2.07,2.07,0,0,0-1.87,2.22v3.54a2.07,2.07,0,0,0,1.87,2.22h2.11C231.45,42,231.44,41.7,231.44,41.7Z"/><rect class="cls-6" x="229.83" y="37.71" width="4.52" height="3.29" rx="0.84" ry="0.84"/><path class="cls-6" d="M232.18,35.59l-.09,7.54a.25.25,0,0,0,.41.16l4-3.21a.91.91,0,0,0,0-1.45l-3.91-3.2A.25.25,0,0,0,232.18,35.59Z"/><path class="cls-7" d="M233.94,11.94H222A1.92,1.92,0,0,1,220.08,10V6.4A1.92,1.92,0,0,1,222,4.47h11.93a1.93,1.93,0,0,1,1.93,1.93V10A1.93,1.93,0,0,1,233.94,11.94ZM222,5.16a1.25,1.25,0,0,0-1.24,1.24V10A1.25,1.25,0,0,0,222,11.25h11.93A1.25,1.25,0,0,0,235.18,10V6.4a1.25,1.25,0,0,0-1.24-1.24Z"/><rect x="221.24" y="5.65" width="13.47" height="5.11" rx="0.73" ry="0.73"/><path class="cls-7" d="M235.68,7.4h.78a.4.4,0,0,1,.4.4v.81a.4.4,0,0,1-.4.4h-.78a0,0,0,0,1,0,0V7.4A0,0,0,0,1,235.68,7.4Z"/><polyline class="cls-1" points="230 511 230 519 25.5 519 25.5 510.97"/></svg>