<svg id="Слой_1" data-name="Слой 1" xmlns="http://www.w3.org/2000/svg" viewBox="0 0 255 520"><defs><style>.cls-1{fill:#fff;}.cls-2{fill:#767676;}.cls-3{fill:#ff2400;}.cls-4{fill:#010101;}.cls-5,.cls-6{fill:none;stroke-miterlimit:10;}.cls-5{stroke:#ff2400;}.cls-6{stroke:#000;stroke-width:0.2px;}</style></defs><title>Монтажная область 1</title><path class="cls-1" d="M232.18,37.59l0,2.12h-1.48a.85.85,0,0,0-.84.84v1.61a.84.84,0,0,0,.84.84h1.45l0,2.13a.25.25,0,0,0,.41.16l4-3.21a.91.91,0,0,0,0-1.45l-3.91-3.2A.25.25,0,0,0,232.18,37.59ZM220.08,6.4V10A1.92,1.92,0,0,0,222,11.94h11.93A1.93,1.93,0,0,0,235.87,10V9h.58a.42.42,0,0,0,.41-.41V7.8a.41.41,0,0,0-.41-.4h-.58v-1a1.93,1.93,0,0,0-1.93-1.93H222A1.92,1.92,0,0,0,220.08,6.4Zm9,34.2a1.4,1.4,0,0,1,1.26-1.5h1s0-.92,0-1.69h-2.08a2.07,2.07,0,0,0-1.87,2.22v3.54a2.07,2.07,0,0,0,1.87,2.22h2.11c0-1.43,0-1.69,0-1.69h-1.07a1.4,1.4,0,0,1-1.26-1.5ZM211.3,39.33h8.6a.36.36,0,0,0,.36-.35V37.71a.36.36,0,0,0-.36-.36h-8.6a.36.36,0,0,0-.36.36V39A.36.36,0,0,0,211.3,39.33Zm1.91-28.13a.74.74,0,1,0-1.47,0,.74.74,0,0,0,1.47,0ZM219.62,40h-8.05v4.25a1.19,1.19,0,0,0,1.2,1.19h5.66a1.19,1.19,0,0,0,1.19-1.19ZM196,11.94V8.43h-2v3.51Zm3,0V7.12h-2v4.82Zm2.94,0V5.75h-2v6.19Zm2.95,0V4.47h-2v7.47Zm3.63-4.78a5.7,5.7,0,0,1,8,0l.6-.57V6.45l-.08,0a6.5,6.5,0,0,0-7.11-1.29,5.79,5.79,0,0,0-2.09,1.4Zm1.34,1.29a3.8,3.8,0,0,1,2.68-1.08,3.84,3.84,0,0,1,2.69,1.09l.66-.63a4.71,4.71,0,0,0-6.65,0C209.38,8,209.58,8.24,209.79,8.45Zm4.68.68a2.82,2.82,0,0,0-4,0c.21.21.41.42.62.62a2,2,0,0,1,2.76,0Zm40,15.69V495.18a24.32,24.32,0,0,1-24.32,24.32H24.82A24.32,24.32,0,0,1,.5,495.18V24.82A24.32,24.32,0,0,1,24.82.5H63.21V6a7.6,7.6,0,0,0,7.6,7.6H179.64A7.61,7.61,0,0,0,187.25,6V.5h42.93A24.32,24.32,0,0,1,254.5,24.82Z"/><path class="cls-2" d="M235.87,9V7.4h.58a.41.41,0,0,1,.41.4v.81a.42.42,0,0,1-.41.41Z"/><rect class="cls-2" x="235.68" y="7.4" width="0.19" height="1.62"/><path d="M234.71,6.38V10a.73.73,0,0,1-.73.73H222a.73.73,0,0,1-.73-.73V6.38a.73.73,0,0,1,.73-.73h12A.73.73,0,0,1,234.71,6.38Z"/><path class="cls-3" d="M233.51,43h-1.39l0-3.29h1.36a.85.85,0,0,1,.84.84v1.61A.84.84,0,0,1,233.51,43Z"/><path class="cls-3" d="M234.35,40.55a.85.85,0,0,0-.84-.84h-1.36l0-2.12a.25.25,0,0,1,.41-.16l3.91,3.2a.91.91,0,0,1,0,1.45l-4,3.21a.25.25,0,0,1-.41-.16l0-2.13h1.39a.84.84,0,0,0,.84-.84Z"/><path class="cls-3" d="M232.15,39.71l0,3.29h-1.45a.84.84,0,0,1-.84-.84V40.55a.85.85,0,0,1,.84-.84Z"/><path class="cls-3" d="M229.11,42.2a1.4,1.4,0,0,0,1.26,1.5h1.07s0,.26,0,1.69h-2.11a2.07,2.07,0,0,1-1.87-2.22V39.63a2.07,2.07,0,0,1,1.87-2.22h2.08c0,.77,0,1.69,0,1.69h-1a1.4,1.4,0,0,0-1.26,1.5Z"/><path class="cls-2" d="M233.94,11.94H222A1.92,1.92,0,0,1,220.08,10V6.4A1.92,1.92,0,0,1,222,4.47h11.93a1.93,1.93,0,0,1,1.93,1.93v1h-.19V9h.19v1A1.93,1.93,0,0,1,233.94,11.94Zm0-6.78H222a1.25,1.25,0,0,0-1.24,1.24V10A1.25,1.25,0,0,0,222,11.25h11.93A1.25,1.25,0,0,0,235.18,10V6.4A1.25,1.25,0,0,0,233.94,5.16Z"/><path class="cls-3" d="M219.9,37.35a.36.36,0,0,1,.36.36V39a.36.36,0,0,1-.36.35h-8.6a.36.36,0,0,1-.36-.35V37.71a.36.36,0,0,1,.36-.36Z"/><path d="M215.82,7.83l-.66.63a3.84,3.84,0,0,0-2.69-1.09,3.8,3.8,0,0,0-2.68,1.08c-.21-.21-.41-.43-.62-.65A4.71,4.71,0,0,1,215.82,7.83Z"/><path d="M214.47,9.13l-.63.63a2,2,0,0,0-2.76,0c-.21-.2-.41-.41-.62-.62A2.82,2.82,0,0,1,214.47,9.13Z"/><path class="cls-3" d="M216.78,41.37V41a.09.09,0,0,0-.1-.09h-2.16a.09.09,0,0,0-.1.09v.36a.1.1,0,0,0,.1.1h2.16A.1.1,0,0,0,216.78,41.37ZM211.57,40h8.05v4.25a1.19,1.19,0,0,1-1.19,1.19h-5.66a1.19,1.19,0,0,1-1.2-1.19Z"/><path d="M212.47,10.47a.74.74,0,1,1,0,1.47.72.72,0,0,1-.73-.73A.72.72,0,0,1,212.47,10.47Z"/><path d="M209.9,5.11A6.5,6.5,0,0,1,217,6.4l.08,0v.14l-.6.57a5.7,5.7,0,0,0-8,0l-.64-.65A5.79,5.79,0,0,1,209.9,5.11Z"/><rect class="cls-4" x="202.83" y="4.47" width="1.99" height="7.47"/><rect class="cls-4" x="199.88" y="5.75" width="1.99" height="6.19"/><rect class="cls-4" x="196.93" y="7.12" width="2" height="4.82"/><rect class="cls-4" x="193.99" y="8.43" width="1.99" height="3.51"/><path class="cls-5" d="M187.25.5h42.93A24.32,24.32,0,0,1,254.5,24.82V495.18a24.32,24.32,0,0,1-24.32,24.32H24.82A24.32,24.32,0,0,1,.5,495.18V24.82A24.32,24.32,0,0,1,24.82.5H187.25Z"/><path class="cls-5" d="M187.25.5V6a7.61,7.61,0,0,1-7.61,7.6H70.81A7.6,7.6,0,0,1,63.21,6V.44h124Z"/><path class="cls-6" d="M217.09,6.59l-.6.57a5.7,5.7,0,0,0-8,0l-.64-.65a5.79,5.79,0,0,1,2.09-1.4A6.5,6.5,0,0,1,217,6.4l.08,0Z"/><path class="cls-6" d="M215.82,7.83l-.66.63a3.84,3.84,0,0,0-2.69-1.09,3.8,3.8,0,0,0-2.68,1.08c-.21-.21-.41-.43-.62-.65A4.71,4.71,0,0,1,215.82,7.83Z"/><path class="cls-6" d="M211.08,9.78c-.21-.2-.41-.41-.62-.62a2.82,2.82,0,0,1,4,0l-.63.63A2,2,0,0,0,211.08,9.78Z"/><path class="cls-6" d="M211.74,11.21a.74.74,0,1,1,.73.73A.72.72,0,0,1,211.74,11.21Z"/></svg>