<svg xmlns="http://www.w3.org/2000/svg" viewBox="0 0 74 15" width="50" height="10">
	<style>
		tspan { white-space:pre }
		.shp0 { fill: none;stroke: #969799;stroke-width: 5 } 
		.shp1 { fill: none;stroke: #969799;stroke-linecap:round;stroke-width: 5 } 
		.shp2 { fill: #969799 } 
		.shp3 { fill: #ffffff } 
		.shp4 { fill: #ffffff;stroke: #969799;stroke-width: 5 } 
		.shp5 { fill: none;stroke: #b70000;stroke-width: 4 } 
	</style>
	<path id="Path 28" class="shp0" d="M-762.02 -0.56C-762.02 17.96 -777.03 32.97 -795.55 32.97C-814.06 32.97 -829.08 17.96 -829.08 -0.56C-829.08 -19.08 -814.06 -34.09 -795.55 -34.09C-777.03 -34.09 -762.02 -19.08 -762.02 -0.56Z" />
	<path id="Path 29" class="shp1" d="M-749.4 48.96L-772.88 25.48" />
	<path id="Path 25" class="shp2" d="M-4231.9 17.27C-4231.9 20.96 -4234.88 23.94 -4238.56 23.94C-4242.25 23.94 -4245.23 20.96 -4245.23 17.27C-4245.23 13.59 -4242.25 10.61 -4238.56 10.61C-4234.88 10.61 -4231.9 13.59 -4231.9 17.27ZM-4202.48 17.27C-4202.48 20.96 -4205.47 23.94 -4209.15 23.94C-4212.83 23.94 -4215.82 20.96 -4215.82 17.27C-4215.82 13.59 -4212.83 10.61 -4209.15 10.61C-4205.47 10.61 -4202.48 13.59 -4202.48 17.27ZM-4261.31 17.27C-4261.31 20.96 -4264.3 23.94 -4267.98 23.94C-4271.66 23.94 -4274.65 20.96 -4274.65 17.27C-4274.65 13.59 -4271.66 10.61 -4267.98 10.61C-4264.3 10.61 -4261.31 13.59 -4261.31 17.27ZM43.86 7.43C43.86 11.12 40.88 14.1 37.2 14.1C33.52 14.1 30.53 11.12 30.53 7.43C30.53 3.75 33.52 0.77 37.2 0.77C40.88 0.77 43.86 3.75 43.86 7.43ZM73.28 7.43C73.28 11.12 70.3 14.1 66.61 14.1C62.93 14.1 59.95 11.12 59.95 7.43C59.95 3.75 62.93 0.77 66.61 0.77C70.3 0.77 73.28 3.75 73.28 7.43ZM14.45 7.43C14.45 11.12 11.46 14.1 7.78 14.1C4.1 14.1 1.11 11.12 1.11 7.43C1.11 3.75 4.1 0.77 7.78 0.77C11.46 0.77 14.45 3.75 14.45 7.43Z" />
	<path id="Path 38" class="shp1" d="M-20.93 2203L17.07 2241L51.74 2206.33" />
	<path id="Path 10" class="shp3" d="M-131.9 2592.54L-2404.76 2592.54C-2452.53 2592.54 -2491.26 2553.81 -2491.26 2506.04C-2491.26 2458.27 -2452.53 2419.54 -2404.76 2419.54L-131.9 2419.54C-84.13 2419.54 -45.4 2458.27 -45.4 2506.04C-45.4 2553.81 -84.13 2592.54 -131.9 2592.54Z" />
	<path id="Path 11" fill-rule="evenodd" class="shp0" d="M-2558.56 2506.04C-2558.56 2536.97 -2583.64 2562.04 -2614.56 2562.04C-2645.49 2562.04 -2670.56 2536.97 -2670.56 2506.04C-2670.56 2475.11 -2645.49 2450.04 -2614.56 2450.04C-2583.64 2450.04 -2558.56 2475.11 -2558.56 2506.04ZM-2904.52 64.45L-2967.19 64.45C-2971.98 64.45 -2975.86 60.57 -2975.86 55.78L-2975.86 -10.89C-2975.86 -15.67 -2971.98 -19.55 -2967.19 -19.55L-2904.52 -19.55C-2899.74 -19.55 -2895.86 -15.67 -2895.86 -10.89L-2895.86 55.78C-2895.86 60.57 -2899.74 64.45 -2904.52 64.45ZM-2615.23 2478.21L-2615.23 2529.54M-2588.9 2503.87L-2641.56 2503.87" />
	<path id="Path 12" class="shp4" d="M-2943.72 17.31L-2898.27 -28.14C-2895.93 -30.49 -2892.12 -30.49 -2889.77 -28.14L-2882.61 -20.97C-2880.26 -18.62 -2880.26 -14.82 -2882.61 -12.47L-2927 31.92C-2927.67 32.6 -2928.49 33.1 -2929.4 33.4L-2949.46 39.99C-2950.06 40.18 -2950.64 39.64 -2950.47 39.03L-2945.28 20C-2945 18.98 -2944.46 18.05 -2943.72 17.31Z" />
	<path id="Path 13" fill-rule="evenodd" class="shp0" d="M-121.82 2506.04C-121.82 2538.07 -147.79 2564.04 -179.82 2564.04C-211.85 2564.04 -237.82 2538.07 -237.82 2506.04C-237.82 2474.01 -211.85 2448.04 -179.82 2448.04C-147.79 2448.04 -121.82 2474.01 -121.82 2506.04ZM-211.07 2517.87C-211.07 2517.87 -203.57 2544.37 -179.82 2544.37C-152.74 2544.37 -148.57 2517.87 -148.57 2517.87C-148.57 2517.87 -181.74 2518.04 -211.07 2517.87Z" />
	<path id="Path 14" class="shp2" d="M-201.2 2497.47L-201.61 2497.47C-204.61 2497.47 -207.04 2495.04 -207.04 2492.04C-207.04 2489.04 -204.61 2486.61 -201.61 2486.61L-201.2 2486.61C-198.2 2486.61 -195.77 2489.04 -195.77 2492.04C-195.77 2495.04 -198.2 2497.47 -201.2 2497.47ZM-158.03 2497.47L-158.44 2497.47C-161.44 2497.47 -163.87 2495.04 -163.87 2492.04C-163.87 2489.04 -161.44 2486.61 -158.44 2486.61L-158.03 2486.61C-155.04 2486.61 -152.61 2489.04 -152.61 2492.04C-152.61 2495.04 -155.04 2497.47 -158.03 2497.47Z" />
	<path id="Path 15" fill-rule="evenodd" class="shp0" d="M64.41 2526.52C51.57 2526.52 41.16 2516.11 41.16 2503.27L41.16 2471.77C41.16 2458.93 51.57 2448.52 64.41 2448.52C77.25 2448.52 87.66 2458.93 87.66 2471.77L87.66 2503.27C87.66 2516.11 77.25 2526.52 64.41 2526.52ZM24.5 2506.15C24.5 2528.19 42.37 2546.06 64.41 2546.06C86.46 2546.06 104.33 2528.19 104.33 2506.15M64.41 2546.56L64.41 2563.56" />
	<path id="Path 2" class="shp5" d="M185.57 2965.14L-4409.57 2965.14C-4465.4 2965.14 -4510.66 2919.88 -4510.66 2864.05L-4510.66 -346.09C-4510.66 -401.92 -4465.4 -447.18 -4409.57 -447.18L185.57 -447.18C241.4 -447.18 286.66 -401.92 286.66 -346.09L286.66 2864.05C286.66 2919.88 241.4 2965.14 185.57 2965.14Z" />
	<path id="Path 39" fill-rule="evenodd" class="shp0" d="M-575.7 33.92C-575.7 44 -583.88 52.18 -593.96 52.18C-596.68 52.18 -601.54 50.68 -601.54 50.68C-648.54 33.02 -664.74 -11.94 -664.74 -11.94C-665.68 -14.14 -666.2 -16.54 -666.2 -19.08C-666.2 -29.14 -658.02 -37.32 -647.96 -37.32C-637.88 -37.32 -629.7 -29.14 -629.7 -19.08C-629.7 -12.4 -633.3 -6.54 -638.68 -3.36C-637.4 -0.78 -629.32 14.38 -610.04 24.92C-610.04 24.92 -600.86 15.68 -593.96 15.68C-583.88 15.68 -575.7 23.86 -575.7 33.92ZM-400.61 -17.82L-400.63 35.32C-400.63 37.56 -403.35 38.68 -404.93 37.1L-425.11 16.93C-425.82 16.22 -427.03 16.72 -427.03 17.73L-427.03 34.94C-427.03 39.26 -430.53 42.76 -434.85 42.76L-496.87 42.76C-501.19 42.76 -504.71 39.24 -504.71 34.92L-504.71 -20.06C-504.71 -24.4 -501.19 -27.9 -496.87 -27.9L-434.87 -27.9C-430.55 -27.9 -427.03 -24.4 -427.03 -20.06L-427.03 -0.2C-427.03 0.8 -425.82 1.31 -425.11 0.6L-404.91 -19.6C-403.33 -21.18 -400.61 -20.06 -400.61 -17.82ZM-71.34 -8.37L-154.31 -8.37C-156.21 -8.37 -157.75 -9.91 -157.75 -11.81L-157.75 -24.01C-157.75 -25.91 -156.21 -27.45 -154.31 -27.45L-71.34 -27.45C-69.44 -27.45 -67.9 -25.91 -67.9 -24.01L-67.9 -11.81C-67.9 -9.91 -69.44 -8.37 -71.34 -8.37ZM-74.01 -0.44L-74.01 36.77C-74.01 43.16 -79.18 48.33 -85.57 48.33L-140.08 48.33C-146.46 48.33 -151.64 43.16 -151.64 36.77L-151.64 -0.44L-74.01 -0.44ZM-94.86 11.22C-94.86 10.47 -95.46 9.86 -96.21 9.86L-127.39 9.86C-128.14 9.86 -128.75 10.47 -128.75 11.22L-128.75 16.39C-128.75 17.14 -128.14 17.75 -127.39 17.75L-96.21 17.75C-95.46 17.75 -94.86 17.14 -94.86 16.39L-94.86 11.22Z" />
	<path id="Path 72" fill-rule="evenodd" class="shp0" d="M-283.83 36C-283.83 34.57 -284.99 33.42 -286.41 33.42L-295.44 33.46C-307.06 33.46 -308.73 24.08 -308.73 15.35L-308.73 -1.54C-308.73 -10.28 -306.2 -19.66 -295.44 -19.66L-287.18 -19.66C-285.77 -19.66 -284.62 -20.78 -284.6 -22.19C-284.57 -24.55 -284.55 -28.34 -284.6 -32.56C-284.62 -33.97 -285.77 -35.11 -287.18 -35.11L-306.55 -35.11C-317.41 -35.11 -326.21 -24.64 -326.21 -11.72L-326.21 25.53C-326.21 38.44 -317.41 48.91 -306.55 48.91L-286.4 48.91C-284.98 48.91 -283.83 47.76 -283.83 46.34L-283.83 36ZM-223.08 1.88L-266.4 -33.6C-268.02 -34.93 -270.64 -33.92 -270.66 -31.98L-270.91 -7.73L-286.18 -7.73C-290.96 -7.73 -294.83 -3.88 -294.83 0.92L-294.83 12.89C-294.83 17.67 -290.96 21.54 -286.18 21.54L-271.31 21.54L-271.56 45.75C-271.58 47.71 -268.97 48.74 -267.32 47.41L-223.12 11.88C-219.72 9.16 -219.7 4.65 -223.08 1.88Z" />
</svg>